<svg width="664" height="665" viewBox="0 0 664 665" fill="none" xmlns="http://www.w3.org/2000/svg">
<g clip-path="url(#clip0_306_9)">
<path opacity="0.2" d="M663.459 504.085V333.877H663.999V331.998H663.459V161.791C663.449 120.049 647.205 79.9474 618.163 49.9658V46.8775H663.459V44.9858H619.475L661.709 2.52078L660.422 1.23396L618.201 43.699V2.1476H616.323V44.9858H613.131C583.581 16.7383 544.283 0.962883 503.404 0.937988H160.042C119.18 0.976116 79.9032 16.7505 50.3661 44.9858H47.162V2.1476H45.2961V43.6604L3.0755 1.19535L1.78868 2.48217L44.0092 44.9472H2.67659V46.826H45.2961V49.9658C16.25 79.9451 0.00579511 120.048 0 161.791V504.085C0.00579511 545.827 16.25 585.93 45.2961 615.909V619.049H2.67659V620.928H43.9706L1.75008 663.393L3.0369 664.68L45.2575 622.215V663.728H47.1234V620.889H50.3275C79.8742 649.134 119.167 664.909 160.042 664.937H503.404C544.27 664.902 583.552 649.128 613.093 620.889H616.284V663.728H618.163V622.215L660.383 664.68L661.67 663.393L619.437 620.928H663.999V619.049H618.163V615.909C647.198 585.923 663.441 545.825 663.459 504.085ZM661.58 504.085C661.577 544.662 646.041 583.698 618.163 613.181V451.904H660.911V450.038H618.163V333.877H661.58V504.085ZM449.525 450.038L448.238 448.751C450.374 446.581 452.446 444.35 454.453 442.06V450.038H449.525ZM454.453 451.917V454.993L451.391 451.917H454.453ZM210.073 450.038V443.282C211.746 445.148 213.471 446.963 215.221 448.751L213.934 450.038H210.073ZM212.068 451.917L210.073 453.899V451.904L212.068 451.917ZM213.934 215.837L215.221 217.124C213.471 218.912 211.746 220.74 210.073 222.593V215.837H213.934ZM210.073 213.958V211.977L212.068 213.971L210.073 213.958ZM454.453 215.837V223.815C452.446 221.525 450.374 219.294 448.238 217.124L449.525 215.837H454.453ZM451.391 213.958L454.453 210.883V213.958H451.391ZM454.453 331.985H450.052C449.857 301.112 437.666 271.524 416.055 249.474L446.938 218.462C449.512 221.096 452.026 223.828 454.479 226.659L454.453 331.985ZM456.319 228.885C480.321 257.894 493.511 294.334 493.637 331.985H456.319V228.885ZM414.729 250.761C436.001 272.447 448 301.558 448.187 331.934H333.981L414.729 250.761ZM332.669 330.544V215.837C362.941 216.048 391.925 228.115 413.404 249.449L332.669 330.544ZM330.79 330.544L250.042 249.359C271.545 228.064 300.528 216.032 330.79 215.837V330.544ZM329.503 331.831H215.272C215.466 301.456 227.464 272.348 248.729 250.658L329.503 331.831ZM329.503 333.71L248.755 414.882C227.49 393.193 215.492 364.084 215.298 333.71H329.503ZM330.79 334.997V450.038C300.512 449.826 271.523 437.754 250.042 416.414L330.79 334.997ZM332.669 334.997L413.404 416.169C391.969 437.601 362.979 449.763 332.669 450.038V334.997ZM333.956 333.71H448.148C447.961 364.086 435.962 393.197 414.691 414.882L333.956 333.71ZM445.587 217.124L414.704 248.149C397.752 231.332 376.09 220.063 352.589 215.837H444.275L445.587 217.124ZM332.669 213.958V170.116C373.451 170.316 412.636 185.99 442.306 213.971L332.669 213.958ZM330.79 213.958H221.153C250.817 185.969 290.006 170.294 330.79 170.103V213.958ZM310.857 215.837C287.349 220.064 265.678 231.332 248.717 248.149L217.833 217.124L219.12 215.837H310.857ZM216.546 218.411L247.43 249.423C225.809 271.466 213.615 301.058 213.432 331.934H210.099V225.437C212.171 223.056 214.32 220.727 216.546 218.475V218.411ZM208.208 331.934H169.77C169.914 293.706 183.523 256.751 208.208 227.56V331.934ZM208.208 333.813V438.187C183.523 408.996 169.914 372.041 169.77 333.813H208.208ZM210.073 333.813H213.406C213.587 364.685 225.781 394.274 247.404 416.311L216.52 447.336C214.294 445.084 212.145 442.755 210.086 440.374L210.073 333.813ZM217.872 448.751L248.755 417.726C265.707 434.537 287.362 445.804 310.857 450.038H219.184L217.872 448.751ZM330.79 451.917V495.772C290.006 495.581 250.817 479.906 221.153 451.917H330.79ZM332.669 451.917H442.306C412.636 479.898 373.451 495.572 332.669 495.772V451.917ZM352.589 450.038C376.099 445.817 397.771 434.548 414.729 417.726L445.613 448.751L444.326 450.038H352.589ZM446.913 447.465L416.029 416.439C437.643 394.397 449.835 364.812 450.027 333.941H454.428V439.268C452.026 442.047 449.521 444.779 446.913 447.465ZM456.319 333.941H493.637C493.511 371.592 480.321 408.032 456.319 437.041V333.941ZM495.554 332.063C495.411 293.201 481.511 255.645 456.319 226.054V215.837H555.276C573.903 251.725 583.668 291.551 583.753 331.985L495.554 332.063ZM456.319 214.035V209.068L510.597 154.52C527.98 172.126 542.698 192.176 554.285 214.035H456.319ZM456.319 206.417V112.66C475.677 123.752 493.482 137.355 509.272 153.117L456.319 206.417ZM454.453 208.296L448.753 214.035H445.034C414.881 184.857 374.627 168.446 332.669 168.225V79.5884C375.332 79.6821 417.26 90.7046 454.453 111.605V208.296ZM330.79 168.225C288.842 168.423 248.589 184.806 218.425 213.958H214.706L210.073 209.3V110.987C247.008 90.475 288.542 79.6676 330.79 79.5756V168.225ZM208.208 207.434L154.161 153.117C170.252 137.067 188.431 123.255 208.208 112.055V207.434ZM208.208 210.098V213.958H109.122C120.705 192.096 135.424 172.045 152.81 154.443L208.208 210.098ZM208.208 215.85V224.729C182.35 254.5 168.043 292.566 167.891 331.998H79.7056C79.789 291.56 89.5537 251.729 108.183 215.837L208.208 215.85ZM167.891 333.877C168.043 373.309 182.35 411.376 208.208 441.146V450.038H108.183C89.5557 414.15 79.7911 374.324 79.7056 333.89L167.891 333.877ZM208.208 451.904V455.765L152.874 511.394C135.488 493.791 120.77 473.741 109.187 451.878L208.208 451.904ZM208.208 458.441V553.82C188.431 542.62 170.252 528.808 154.161 512.758L208.208 458.441ZM210.073 456.562L214.706 451.904H218.425C248.587 481.061 288.84 497.449 330.79 497.651V586.313C288.542 586.21 247.009 575.398 210.073 554.888V456.562ZM332.669 497.651C374.617 497.45 414.869 481.067 445.034 451.917H448.753L454.453 457.656V554.271C417.259 575.169 375.332 586.195 332.669 586.3V497.651ZM456.319 459.535L509.272 512.771C493.476 528.526 475.672 542.129 456.319 553.228V459.535ZM456.319 456.884V451.917H554.285C542.698 473.777 527.98 493.827 510.597 511.432L456.319 456.884ZM456.319 450.038V439.898C481.511 410.307 495.411 372.752 495.554 333.89H583.753C583.668 374.324 573.903 414.15 555.276 450.038H456.319ZM585.619 333.89H616.284V450.038H557.386C575.862 414.1 585.539 374.287 585.619 333.877V333.89ZM585.619 332.011C585.541 291.597 575.864 251.78 557.386 215.837H616.284V331.985L585.619 332.011ZM556.395 213.984C544.651 191.619 529.664 171.113 511.923 153.13L615.1 49.4511L615.19 49.5283C615.576 49.9272 615.962 50.3519 616.348 50.8151V213.971L556.395 213.984ZM613.685 48.1514L510.597 151.792C494.435 135.66 476.179 121.771 456.319 110.498V46.8646H612.346L613.685 48.1514ZM454.453 109.456C417.202 88.7297 375.298 77.8021 332.669 77.6968V46.8131H454.453V109.456ZM332.669 44.9858V2.81674H454.453V44.9858H332.669ZM330.79 44.9858H210.073V2.81674H330.79V44.9858ZM330.79 46.8646V77.7483C288.576 77.8471 247.064 88.5603 210.073 108.902V46.8646H330.79ZM208.208 109.919C187.938 121.29 169.32 135.383 152.874 151.805L49.7871 48.1643L51.0739 46.8775H208.208V109.919ZM48.333 49.5283L48.4102 49.4511L151.536 153.117C133.787 171.096 118.796 191.603 107.051 213.971H47.162V50.7637C47.6124 50.3519 47.9341 49.9272 48.333 49.5283ZM106.073 215.837C87.5987 251.772 77.9223 291.58 77.8398 331.985H47.162V215.837H106.073ZM77.8398 333.864C77.9183 374.278 87.5948 414.096 106.073 450.038H47.162V333.877L77.8398 333.864ZM107.051 451.891C118.796 474.259 133.787 494.766 151.536 512.745L48.4102 616.424L48.333 616.347C47.9341 615.948 47.5609 615.523 47.162 615.06V451.904L107.051 451.891ZM49.7742 617.724L152.861 514.083C169.311 530.506 187.927 544.602 208.195 555.982V619.036H51.1125L49.7742 617.724ZM210.073 557.025C247.064 577.366 288.576 588.08 330.79 588.178V619.062H210.073V557.025ZM330.79 620.889V663.058H210.073V620.889H330.79ZM332.669 620.889H454.453V663.058H332.669V620.889ZM332.669 619.011V588.127C375.298 588.022 417.202 577.094 454.453 556.368V618.959L332.669 619.011ZM456.319 555.377C476.179 544.104 494.435 530.216 510.597 514.083L613.685 617.724L612.398 619.011H456.319V555.377ZM615.1 616.347L615.01 616.424L511.897 512.758C529.639 494.775 544.625 474.269 556.37 451.904H616.258V615.112L615.1 616.347ZM661.58 161.791V331.998H618.163V215.837H660.911V213.958H618.163V52.7325C646.032 82.2061 661.567 121.227 661.58 161.791ZM610.39 44.9472H456.319V2.81674H503.404C543.114 2.84607 581.34 17.9129 610.39 44.9858V44.9472ZM160.003 2.77814H208.208V44.9472H53.0685C82.1211 17.8902 120.341 2.83755 160.042 2.81674L160.003 2.77814ZM1.86589 504.085V161.791C1.87391 121.212 17.4138 82.1759 45.2961 52.6939V213.932H2.57364V215.837H45.2961V331.985H2.41922V333.864H45.2961V450.038H2.57364V451.917H45.2961V613.156C17.4199 583.68 1.88049 544.654 1.86589 504.085ZM53.0685 620.928H208.208V663.097H160.042C120.331 663.055 82.1092 647.975 53.0685 620.889V620.928ZM503.456 663.097H456.319V620.889H610.39C581.338 647.96 543.114 663.027 503.404 663.058L503.456 663.097Z" fill="url(#paint0_radial_306_9)"/>
<mask id="mask0_306_9" style="mask-type:alpha" maskUnits="userSpaceOnUse" x="-77" y="13" width="592" height="665">
<path d="M514.785 13H-77V677.938H514.785V13Z" fill="url(#paint1_linear_306_9)"/>
</mask>
<g mask="url(#mask0_306_9)">
<path d="M82.8643 584.71C82.8643 579.582 82.8643 577.019 83.8779 575.067C84.7321 573.423 86.0729 572.082 87.7173 571.228C89.6687 570.214 92.2324 570.214 97.3597 570.214H147.148C152.276 570.214 154.839 570.214 156.791 571.228C158.435 572.082 159.776 573.423 160.63 575.067C161.644 577.019 161.644 579.582 161.644 584.71V634.499C161.644 639.626 161.644 642.19 160.63 644.141C159.776 645.785 158.435 647.126 156.791 647.98C154.839 648.994 152.276 648.994 147.148 648.994H97.3597C92.2324 648.994 89.6687 648.994 87.7173 647.98C86.0729 647.126 84.7321 645.785 83.8779 644.141C82.8643 642.19 82.8643 639.626 82.8643 634.499V584.71Z" fill="white" fill-opacity="0.1"/>
<path d="M147.148 569.745H97.3597H97.3374C94.7926 569.745 92.8539 569.745 91.3087 569.874C89.7534 570.003 88.5549 570.264 87.5012 570.812C85.7711 571.711 84.3605 573.121 83.4618 574.851C82.9144 575.905 82.6528 577.104 82.5236 578.659C82.3953 580.204 82.3953 582.143 82.3953 584.687V584.71V634.499V634.521C82.3953 637.066 82.3953 639.004 82.5236 640.55C82.6528 642.105 82.9144 643.303 83.4618 644.357C84.3605 646.087 85.7711 647.498 87.5012 648.396C88.5549 648.944 89.7534 649.205 91.3087 649.335C92.8538 649.463 94.7924 649.463 97.3371 649.463H97.3597H147.148H147.171C149.716 649.463 151.654 649.463 153.199 649.335C154.755 649.205 155.953 648.944 157.007 648.396C158.737 647.498 160.148 646.087 161.046 644.357C161.594 643.303 161.855 642.105 161.985 640.55C162.113 639.004 162.113 637.066 162.113 634.521V634.499V584.71V584.687C162.113 582.143 162.113 580.204 161.985 578.659C161.855 577.104 161.594 575.905 161.046 574.851C160.148 573.121 158.737 571.711 157.007 570.812C155.953 570.264 154.755 570.003 153.199 569.874C151.654 569.745 149.716 569.745 147.171 569.745H147.148Z" stroke="white" stroke-opacity="0.2" stroke-width="0.937853"/>
<mask id="mask1_306_9" style="mask-type:luminance" maskUnits="userSpaceOnUse" x="95" y="582" width="55" height="55">
<path d="M149.451 582.407H95.0557V636.802H149.451V582.407Z" fill="white"/>
</mask>
<g mask="url(#mask1_306_9)">
<path d="M98.4551 582.407H146.051L141.722 631.279L122.201 636.802L102.789 631.277L98.4551 582.407ZM137.189 592.409L107.317 592.402L107.8 598.345L130.748 598.349L130.17 604.505H115.12L115.664 610.337H129.676L128.846 618.321L122.251 620.144L115.551 618.308L115.125 613.525H109.21L109.867 622.263L122.253 626.123L134.431 622.655L137.189 592.411V592.409Z" fill="white"/>
</g>
<path d="M359.185 66.2432H309.479C301.709 66.2432 295.411 72.5415 295.411 80.311V130.017C295.411 137.787 301.709 144.085 309.479 144.085H359.185C366.955 144.085 373.253 137.787 373.253 130.017V80.311C373.253 72.5415 366.955 66.2432 359.185 66.2432Z" fill="white" fill-opacity="0.1"/>
<path d="M359.185 65.7742H309.479C301.451 65.7742 294.942 72.2825 294.942 80.311V130.017C294.942 138.046 301.451 144.554 309.479 144.554H359.185C367.214 144.554 373.722 138.046 373.722 130.017V80.311C373.722 72.2826 367.214 65.7742 359.185 65.7742Z" stroke="white" stroke-opacity="0.2" stroke-width="0.937853"/>
<path d="M317.251 81.2628C317.251 81.2628 317.05 81.5803 317.241 82.0503C317.356 82.3403 317.707 82.6903 318.094 83.0603C318.094 83.0603 322.144 87.0002 322.641 87.5702C324.886 90.1526 325.861 92.6951 325.952 96.2025C326.007 98.4525 325.573 100.432 324.514 102.735C322.618 106.857 318.62 111.405 312.45 116.46L313.353 116.16C313.937 115.727 314.728 115.262 316.594 114.245C320.89 111.905 325.713 109.75 331.64 107.53C340.166 104.337 354.189 100.59 362.17 99.3725L363 99.245L362.875 99.045C362.142 97.915 361.646 97.2175 361.044 96.4775C359.295 94.3201 357.176 92.5601 354.58 91.1126C351.013 89.1201 346.386 87.5727 340.534 86.4127C338.708 86.0703 336.876 85.7578 335.039 85.4752C331.753 84.973 328.472 84.4396 325.197 83.8752C324.131 83.6877 322.538 83.4227 321.482 83.1953C320.668 83.0228 319.863 82.8075 319.072 82.5503C318.4 82.2878 317.454 82.0328 317.251 81.2628ZM319.598 83.5352C319.606 83.5302 319.756 83.5777 319.942 83.6402C320.283 83.7552 320.735 83.8902 321.261 84.0377C321.628 84.1377 322.031 84.2477 322.463 84.3552C323.01 84.4952 323.464 84.6152 323.469 84.6227C323.529 84.6902 324.449 87.6177 324.763 88.7402C324.883 89.1701 324.973 89.5276 324.966 89.5351C324.879 89.4267 324.803 89.3094 324.74 89.1851C323.677 87.3202 321.989 85.4227 320.04 83.8952C319.888 83.7807 319.741 83.6606 319.598 83.5352ZM324.088 84.7702C324.253 84.7859 324.417 84.8143 324.577 84.8552C326.13 85.1952 328.904 85.7302 330.685 86.0302C330.983 86.0802 331.226 86.1302 331.226 86.1477C331.154 86.2127 331.071 86.2651 330.981 86.3027C330.682 86.4527 329.471 87.1752 329.067 87.4452C328.144 88.049 327.28 88.736 326.483 89.4976C326.323 89.6618 326.158 89.8218 325.989 89.9776C325.946 89.8663 325.912 89.7518 325.886 89.6351C325.461 88.1125 324.915 86.6254 324.256 85.1877C324.19 85.0533 324.13 84.9156 324.078 84.7752C324.078 84.7727 324.078 84.7702 324.088 84.7702ZM331.981 86.2652C332.031 86.2827 332.132 86.5902 332.305 87.2752C332.705 88.8904 332.834 90.5603 332.689 92.2176L332.659 92.3126L332.19 92.1626C330.89 91.7569 329.584 91.3735 328.272 91.0126C327.797 90.8916 327.329 90.7498 326.867 90.5876C326.867 90.5326 327.993 89.4101 328.477 88.9826C329.403 88.1677 331.894 86.2377 331.981 86.2652ZM332.608 86.3552C332.636 86.3302 336.381 86.9752 338.081 87.3002C339.35 87.5427 341.184 87.9252 341.294 87.9727C341.349 87.9927 341.159 88.0977 340.549 88.3727C338.141 89.4526 336.356 90.4226 334.58 91.6051C334.113 91.9151 333.725 92.1701 333.717 92.1701C333.707 92.1701 333.702 91.9101 333.702 91.5951C333.702 89.8701 333.353 88.1277 332.721 86.6552C332.674 86.5589 332.637 86.4585 332.608 86.3552ZM342.29 88.2652C342.318 88.2927 342.195 89.0301 342.089 89.4651C341.758 90.8151 340.88 92.8251 339.797 94.7125C339.683 94.9254 339.556 95.1309 339.416 95.3275C339.225 95.247 339.041 95.1508 338.866 95.04C337.808 94.4226 336.609 93.8401 335.292 93.2976C335.056 93.2052 334.824 93.1052 334.595 92.9976C334.535 92.9426 337.462 91.0101 339.014 90.0826C340.256 89.3401 342.255 88.2302 342.29 88.2652ZM342.982 88.3727C343.065 88.3727 344.725 88.8227 345.583 89.0801C347.723 89.7176 350.191 90.6151 351.791 91.3401L352.456 91.6401L351.987 91.7476C348.071 92.6476 344.713 93.6801 341.482 94.9875C341.214 95.0975 340.981 95.1875 340.963 95.1875C341.009 95.027 341.072 94.8719 341.151 94.725C342.124 92.6676 342.751 90.5076 342.914 88.6752C342.93 88.5077 342.96 88.3727 342.982 88.3727ZM326.478 92.1526C326.503 92.1276 327.768 92.4226 328.457 92.6151C329.493 92.9051 331.698 93.6401 331.698 93.6976C331.698 93.7076 331.455 93.9201 331.159 94.1676C329.878 95.2409 328.637 96.3608 327.439 97.525C327.191 97.7726 326.933 98.0103 326.666 98.2375C326.649 98.2375 326.641 98.18 326.651 98.1125C326.86 96.585 326.814 94.625 326.526 92.6301C326.498 92.4732 326.481 92.3144 326.476 92.1551L326.478 92.1526ZM353.09 92.1776C353.108 92.1976 352.503 93.1401 352.127 93.6776C351.575 94.4626 350.78 95.4925 348.964 97.77L346.571 100.775C346.353 101.057 346.128 101.335 345.897 101.607C345.889 101.607 345.771 101.442 345.638 101.242C344.613 99.7175 343.371 98.3491 341.951 97.18C341.729 96.9943 341.503 96.8126 341.274 96.635C341.206 96.5897 341.144 96.5369 341.089 96.4775C341.089 96.4525 342.636 95.7925 343.817 95.3125C346.106 94.3956 348.431 93.57 350.785 92.8376C351.894 92.5001 353.073 92.1626 353.09 92.1776ZM353.787 92.3601C353.97 92.4217 354.145 92.5057 354.307 92.6101C356.518 93.8729 358.564 95.4046 360.397 97.17C360.883 97.645 362.069 98.8775 362.052 98.8875L361.141 98.96C357.304 99.2475 352.398 100.06 347.673 101.192C347.351 101.267 347.076 101.332 347.055 101.332C347.038 101.332 347.389 100.982 347.836 100.552C350.612 97.895 351.876 96.2175 353.366 93.2176C353.587 92.7726 353.775 92.3851 353.782 92.3626L353.787 92.3601ZM333.501 94.4351C333.629 94.4601 334.813 95.01 335.706 95.455C336.521 95.8625 337.758 96.52 337.82 96.5775C337.828 96.585 337.394 96.81 336.852 97.08C335.245 97.8754 333.673 98.7404 332.142 99.6725C331.703 99.94 331.339 100.157 331.327 100.157C331.289 100.157 331.302 100.125 331.547 99.68C332.394 98.1053 333.017 96.4209 333.398 94.675C333.434 94.5201 333.474 94.4251 333.501 94.4326V94.4351ZM332.31 94.645C332.335 94.67 332.029 95.795 331.833 96.395C331.303 97.9735 330.601 99.4893 329.739 100.915L329.513 101.282L329.004 100.79C328.509 100.287 327.936 99.8648 327.309 99.54C327.153 99.47 327.005 99.3846 326.867 99.285C326.867 99.21 328.422 97.8025 329.621 96.79C330.481 96.065 332.29 94.6225 332.31 94.645ZM339.554 97.615L339.997 97.9025C341.018 98.5625 342.225 99.45 343.145 100.212C343.662 100.642 344.663 101.537 344.868 101.752L344.979 101.87L344.241 102.075C340.471 103.1 336.747 104.288 333.08 105.635C332.815 105.736 332.548 105.829 332.277 105.915C332.225 105.915 332.172 105.962 333.113 105.1C335.52 102.892 337.645 100.46 339.232 98.095L339.554 97.615ZM337.65 98.09C337.672 98.1125 336.416 99.865 335.671 100.855C334.778 102.037 333.188 104.017 332.094 105.305C331.815 105.644 331.526 105.975 331.226 106.297C331.201 106.305 331.189 106.172 331.186 105.965C331.186 104.865 330.905 103.69 330.414 102.695C330.206 102.275 330.17 102.175 330.213 102.135C330.384 101.98 333.04 100.47 334.713 99.5775C335.864 98.9625 337.63 98.0675 337.65 98.09ZM326.137 100.902C326.866 101.25 327.55 101.685 328.174 102.197C328.194 102.21 327.956 102.405 327.647 102.627C326.782 103.25 325.465 104.237 324.705 104.842C323.902 105.48 323.875 105.5 323.965 105.36C324.567 104.442 324.868 103.925 325.184 103.26C325.468 102.67 325.746 101.97 325.947 101.36C325.988 101.199 326.051 101.045 326.137 100.902ZM329.205 103.302C329.247 103.295 329.305 103.372 329.553 103.74C330.073 104.515 330.471 105.545 330.574 106.385L330.594 106.567L329.348 107.047C327.433 107.781 325.538 108.565 323.664 109.397C323.275 109.577 322.591 109.902 322.142 110.127C321.693 110.352 321.327 110.527 321.327 110.517C321.327 110.507 321.607 110.295 321.954 110.047C324.68 108.072 327.033 105.912 328.806 103.75C328.994 103.52 329.167 103.32 329.19 103.305C329.194 103.302 329.199 103.301 329.205 103.3V103.302ZM327.79 103.652C327.828 103.687 326.784 104.862 326.082 105.577C324.385 107.315 322.486 108.843 320.424 110.13C320.153 110.302 319.907 110.455 319.872 110.475C319.814 110.51 319.892 110.42 320.84 109.39C321.437 108.742 321.893 108.205 322.415 107.532C322.656 107.185 322.965 106.891 323.323 106.667C324.67 105.697 327.755 103.615 327.79 103.65V103.652ZM330.296 75.0004C330.095 74.9754 326.857 76.1379 324.778 76.9779C321.961 78.1203 319.771 79.2128 318.422 80.1578C317.92 80.5078 317.288 81.1403 317.198 81.3828C317.163 81.4814 317.145 81.5855 317.145 81.6903L318.369 82.8403L321.274 83.7652L328.194 85.0002L336.102 86.3552L336.183 85.6802L336.112 85.6677L335.071 85.5027L334.858 85.1327C333.783 83.2425 332.798 81.3029 331.906 79.3203C331.386 78.1288 330.942 76.9055 330.577 75.6579C330.406 75.0504 330.389 75.0129 330.296 75.0004ZM330.143 75.4654H330.155C330.163 75.4729 330.198 75.7279 330.236 76.0279C330.391 77.2979 330.677 78.5278 331.124 79.8528C331.46 80.8528 331.465 80.7953 331.063 80.6828C330.135 80.4253 325.967 79.7128 322.952 79.2953C322.653 79.2573 322.354 79.2131 322.056 79.1628C322.019 79.1253 324.231 77.9703 325.212 77.5129C326.468 76.9329 329.895 75.5129 330.143 75.4654ZM321.359 79.5353L321.713 79.6553C323.649 80.3103 328.5 81.2353 331.181 81.4553C331.482 81.4803 331.738 81.5078 331.746 81.5153C331.753 81.5228 331.495 81.6603 331.174 81.8203C329.882 82.4653 328.457 83.2527 327.472 83.8677C327.183 84.0477 326.92 84.1927 326.882 84.1902C326.74 84.1702 326.598 84.1477 326.456 84.1227L326.095 84.0652L325.179 83.1778C323.571 81.6278 322.317 80.4278 321.831 79.9778L321.359 79.5353ZM321.001 79.8203L322.282 81.4153C322.989 82.2903 323.697 83.1628 323.852 83.3502C324.01 83.5377 324.131 83.6952 324.123 83.7002C324.088 83.7277 322.267 83.3752 321.301 83.1528C320.622 83.0088 319.95 82.8319 319.287 82.6228L318.786 82.4628L318.788 82.3403C318.796 81.7278 319.571 80.8228 320.885 79.9003L321.001 79.8203ZM331.916 81.9928C331.954 81.9953 331.996 82.0728 332.109 82.3203C332.42 83.0003 333.388 84.8402 333.622 85.1952C333.697 85.3127 333.822 85.3202 332.536 85.1127C329.451 84.6177 328.45 84.4502 328.45 84.4302C328.513 84.3759 328.583 84.3305 328.658 84.2952C329.642 83.7448 330.572 83.1028 331.435 82.3778L331.873 82.0103C331.889 81.9978 331.904 81.9903 331.916 81.9928ZM342.724 103.012L330.665 106.932L320.18 111.547L317.246 112.322C315.691 113.788 314.078 115.19 312.41 116.527C311.544 117.241 310.744 118.032 310.02 118.89C309.187 119.925 308.535 121.025 308.254 121.872C307.752 123.397 307.996 124.942 308.969 126.367C310.21 128.187 312.681 130.037 315.553 131.297C317.02 131.937 319.491 132.767 321.347 133.232C324.439 134.012 330.411 134.857 333.702 134.982C334.369 135.007 335.257 135.007 335.3 134.977C335.37 134.929 335.884 133.964 336.478 132.752C338.5 128.637 339.962 124.777 340.75 121.482C341.226 119.485 341.598 116.825 341.838 113.67C341.913 112.059 341.926 110.446 341.879 108.835C341.816 107.405 341.663 105.98 341.42 104.57C341.388 104.448 341.378 104.321 341.39 104.195C341.425 104.17 341.537 104.132 343.02 103.702L342.724 103.012ZM339.965 104.625C340.078 104.625 340.366 107.41 340.444 109.175C340.459 109.552 340.456 109.792 340.434 109.792C340.364 109.792 338.891 108.93 337.845 108.277C336.858 107.658 335.887 107.014 334.931 106.347C334.843 106.277 334.853 106.275 335.598 106.02C336.865 105.585 339.872 104.625 339.967 104.625H339.965ZM333.825 106.632C333.9 106.632 334.113 106.75 334.615 107.062C336.496 108.237 339.044 109.65 340.133 110.125C340.474 110.275 340.512 110.215 339.732 110.742C338.071 111.867 336.004 112.972 333.469 114.097C333.195 114.222 332.918 114.34 332.638 114.452C332.657 114.282 332.693 114.115 332.746 113.952C333.361 111.69 333.707 109.402 333.717 107.567C333.722 106.662 333.722 106.657 333.81 106.635L333.825 106.632ZM332.561 107.115C332.613 107.17 332.576 109.2 332.511 109.755C332.32 111.317 331.968 112.856 331.462 114.347C331.427 114.39 330.18 113.177 329.767 112.697C329.111 111.957 328.548 111.14 328.089 110.265C327.883 109.86 327.552 109.055 327.582 109.032C327.722 108.932 332.526 107.082 332.561 107.115ZM326.604 109.455C326.614 109.455 326.624 109.457 326.629 109.465C326.684 109.57 326.731 109.68 326.769 109.792C327.156 110.752 327.664 111.659 328.279 112.492C329.022 113.472 329.878 114.362 330.83 115.142C330.888 115.192 330.905 115.182 329.42 115.742C327.52 116.457 325.601 117.123 323.667 117.742C322.847 118.007 322.152 118.23 322.124 118.242C322.041 118.27 322.066 118.22 322.307 117.847C323.378 116.182 324.999 112.922 325.907 110.617C326.062 110.217 326.213 109.817 326.24 109.727C326.278 109.597 326.318 109.552 326.441 109.497C326.491 109.471 326.547 109.456 326.604 109.455ZM324.778 110.205C324.803 110.227 324.341 111.2 323.885 112.082C322.917 113.948 321.869 115.77 320.742 117.545L320.286 118.265C320.241 118.332 320.22 118.31 320.08 118.03C319.752 117.363 319.516 116.655 319.378 115.925C319.249 115.025 319.266 114.111 319.428 113.217C319.546 112.65 319.541 112.662 319.809 112.527C320.968 111.935 324.74 110.172 324.778 110.205ZM340.499 110.842V111.227C340.473 113.733 340.259 116.233 339.86 118.707C338.206 118.231 336.609 117.576 335.099 116.752C334.211 116.267 332.929 115.485 332.967 115.447C332.975 115.437 333.353 115.24 333.805 115.005C335.596 114.08 337.304 113.08 338.791 112.09C339.348 111.72 340.183 111.117 340.369 110.955L340.499 110.842ZM317.895 113.525C317.933 113.525 317.923 113.595 317.865 113.927C317.816 114.25 317.781 114.576 317.762 114.902C317.687 116.232 317.905 117.212 318.565 118.552C318.751 118.927 318.896 119.237 318.889 119.242C318.821 119.3 312.794 121.057 310.898 121.575L309.806 121.875C309.739 121.895 309.734 121.88 309.756 121.725C309.965 120.392 310.985 118.645 312.41 117.175C313.358 116.2 314.116 115.62 315.407 114.887C316.228 114.418 317.058 113.964 317.895 113.525ZM332.114 116.062C332.119 116.057 332.343 116.175 332.608 116.33C334.557 117.452 337.274 118.505 339.589 119.032L339.799 119.082L339.511 119.24C338.302 119.91 334.316 121.562 330.246 123.082C329.816 123.242 329.387 123.404 328.959 123.567C328.894 123.599 328.825 123.622 328.753 123.635C328.753 123.625 328.921 123.305 329.127 122.92C330.271 120.79 331.409 118.202 331.996 116.407C332.054 116.225 332.107 116.07 332.114 116.062ZM330.665 116.537C330.621 116.681 330.568 116.822 330.507 116.96C329.581 119.138 328.525 121.258 327.344 123.31C327.143 123.676 326.932 124.037 326.712 124.392C326.699 124.392 326.426 124.227 326.1 124.03C324.168 122.85 322.458 121.4 321.334 119.987L321.174 119.787L322.006 119.56C324.736 118.832 327.41 117.91 330.007 116.802C330.364 116.652 330.66 116.53 330.665 116.537ZM339.669 119.67C339.671 119.67 339.674 119.672 339.674 119.677C339.674 119.877 339.215 121.747 338.831 123.102C338.51 124.235 338.239 125.122 337.74 126.694C337.613 127.119 337.472 127.539 337.319 127.954C334.744 127.516 332.222 126.811 329.794 125.852C329.25 125.64 328.715 125.404 328.191 125.145C328.176 125.127 328.726 124.87 329.41 124.57C333.561 122.767 337.86 120.712 339.33 119.83C339.433 119.757 339.548 119.703 339.669 119.67ZM318.884 120.377C318.906 120.4 317.745 122.055 316.125 124.317L314.652 126.374C314.409 126.722 314.038 127.269 313.827 127.594L313.443 128.184L313.037 127.842C312.429 127.31 311.861 126.733 311.339 126.117C310.556 125.145 310.027 124.122 309.817 123.182C309.721 122.747 309.716 122.527 309.809 122.5C311.424 122.111 313.041 121.732 314.66 121.362L317.92 120.6C318.445 120.475 318.879 120.375 318.884 120.377ZM320.05 120.822L320.343 121.15C321.569 122.537 323.014 123.714 324.622 124.635C324.798 124.721 324.962 124.829 325.111 124.955C321.502 126.259 317.881 127.534 314.251 128.779C314.189 128.742 314.129 128.702 314.07 128.659L313.902 128.539L314.166 128.159C315.018 126.927 316.092 125.572 318.442 122.755L320.05 120.822ZM327.324 126.004C327.331 125.997 327.737 126.139 328.232 126.324C329.418 126.767 330.348 127.054 331.61 127.369C333.158 127.757 335.397 128.144 336.722 128.254C336.922 128.269 337.028 128.294 336.998 128.314C336.935 128.354 335.593 128.799 334.607 129.109C330.742 130.281 326.866 131.417 322.979 132.517C322.892 132.534 322.586 132.454 322.586 132.417C322.586 132.394 322.804 132.119 323.07 131.802C324.396 130.219 325.632 128.563 326.772 126.842C326.955 126.562 327.139 126.283 327.324 126.004ZM325.713 126.049C325.726 126.062 325.079 127.094 323.943 128.879C323.461 129.632 322.917 130.492 322.731 130.784C322.543 131.079 322.27 131.529 322.124 131.784L321.856 132.247L321.72 132.212C321.394 132.124 319.089 131.312 318.482 131.072C317.758 130.786 317.049 130.462 316.36 130.099C315.636 129.709 314.718 129.129 314.788 129.107L317.559 128.352C321.552 127.267 323.762 126.644 325.209 126.192C325.483 126.109 325.711 126.044 325.713 126.049ZM337.058 128.702H337.073C337.111 128.797 335.631 132.877 335.091 134.172C334.969 134.462 334.926 134.534 334.861 134.529C333.661 134.378 332.462 134.212 331.266 134.029C328.994 133.684 325.189 133.022 324.229 132.804L324.005 132.754L325.367 132.449C328.287 131.794 329.689 131.442 331.111 131.007C332.944 130.445 334.736 129.756 336.473 128.947C336.664 128.855 336.859 128.773 337.058 128.702Z" fill="white"/>
<path d="M194.812 25.6664H146.044C137.756 25.6664 131.038 32.3847 131.038 40.672V89.4404C131.038 97.7278 137.756 104.446 146.044 104.446H194.812C203.099 104.446 209.818 97.7278 209.818 89.4404V40.672C209.818 32.3847 203.099 25.6664 194.812 25.6664Z" fill="white" fill-opacity="0.1"/>
<path d="M194.812 25.1976H146.044C137.497 25.1976 130.569 32.1258 130.569 40.6722V89.4405C130.569 97.9869 137.497 104.915 146.044 104.915H194.812C203.358 104.915 210.286 97.9869 210.286 89.4405V40.6722C210.286 32.1258 203.358 25.1976 194.812 25.1976Z" stroke="white" stroke-opacity="0.2" stroke-width="0.937853"/>
<path d="M179.794 83.49C181.362 86.05 183.402 87.932 187.01 87.932C190.041 87.932 191.977 86.417 191.977 84.324C191.977 81.816 189.988 80.927 186.652 79.468L184.823 78.684C179.545 76.435 176.038 73.618 176.038 67.662C176.038 62.176 180.218 58 186.751 58C191.401 58 194.745 59.619 197.154 63.857L191.458 67.514C190.204 65.265 188.851 64.379 186.751 64.379C184.608 64.379 183.25 65.738 183.25 67.514C183.25 69.708 184.609 70.597 187.748 71.956L189.576 72.739C195.791 75.404 199.3 78.121 199.3 84.23C199.3 90.816 194.127 94.424 187.179 94.424C180.386 94.424 175.997 91.186 173.85 86.943L179.794 83.49ZM153.955 84.124C155.104 86.163 156.149 87.886 158.662 87.886C161.065 87.886 162.581 86.946 162.581 83.29V58.418H169.896V83.389C169.896 90.963 165.455 94.41 158.973 94.41C153.117 94.41 149.725 91.379 148 87.729L153.955 84.124Z" fill="white"/>
<path d="M480.475 333.679L429.834 333.099C422.065 333.01 415.695 339.236 415.606 347.005L415.026 397.646C414.937 405.415 421.163 411.785 428.931 411.874L479.572 412.454C487.341 412.543 493.711 406.317 493.8 398.548L494.38 347.907C494.469 340.138 488.243 333.768 480.475 333.679Z" fill="white" fill-opacity="0.1"/>
<path d="M480.479 333.211L429.839 332.63C421.811 332.539 415.228 338.972 415.136 347L414.556 397.641C414.464 405.668 420.898 412.251 428.926 412.343L479.566 412.923C487.594 413.015 494.177 406.581 494.269 398.554L494.849 347.913C494.941 339.885 488.507 333.302 480.479 333.211Z" stroke="white" stroke-opacity="0.2" stroke-width="0.937853"/>
<path d="M471.1 388.214V396.071H439.9V372.498H455.5V368.57H447.7V356.783C447.698 354.976 448.314 353.224 449.445 351.821C450.575 350.419 452.151 349.451 453.907 349.082C455.662 348.713 457.491 348.965 459.084 349.795C460.677 350.625 461.937 351.983 462.653 353.64L466.225 352.069C465.149 349.588 463.258 347.555 460.87 346.313C458.482 345.072 455.742 344.696 453.111 345.249C450.48 345.802 448.119 347.25 446.423 349.351C444.727 351.451 443.801 354.076 443.8 356.783V368.57H439.9C438.866 368.571 437.875 368.985 437.143 369.721C436.412 370.458 436.001 371.457 436 372.498V396.071C436.001 397.113 436.412 398.112 437.143 398.848C437.875 399.585 438.866 399.999 439.9 400H471.1C472.134 399.999 473.125 399.585 473.857 398.848C474.588 398.112 474.999 397.113 475 396.071V388.214H471.1Z" fill="white"/>
<path d="M275.124 166H224.48C216.71 166 210.412 172.298 210.412 180.068V230.712C210.412 238.481 216.71 244.78 224.48 244.78H275.124C282.893 244.78 289.192 238.481 289.192 230.712V180.068C289.192 172.298 282.893 166 275.124 166Z" fill="white" fill-opacity="0.1"/>
<path d="M275.124 165.531H224.48C216.451 165.531 209.943 172.039 209.943 180.068V230.712C209.943 238.74 216.451 245.249 224.48 245.249H275.124C283.152 245.249 289.66 238.74 289.66 230.712V180.068C289.66 172.039 283.152 165.531 275.124 165.531Z" stroke="white" stroke-opacity="0.2" stroke-width="0.937853"/>
<path d="M263.484 199.095C260.08 183.856 252.986 179.799 251.176 176.931C250.43 175.667 249.769 174.354 249.197 173C249.102 174.354 248.926 175.207 247.792 176.233C245.516 178.293 235.847 186.29 235.033 203.605C234.275 219.75 246.727 229.705 248.372 230.734C249.637 231.366 251.178 230.748 251.93 230.168C257.932 225.987 266.134 214.84 263.49 199.095" fill="white"/>
<path d="M249.11 222C248.849 225.89 248.663 228.151 248 230.374C248 230.374 248.435 234.077 248.74 238H249.821C250.079 235.237 250.473 232.495 251 229.787C249.601 228.97 249.164 225.414 249.11 222Z" fill="#B8C4C2"/>
<path d="M251.694 230C249.954 229.215 249.451 225.537 249.373 222.111C249.804 216.459 249.929 210.789 249.749 205.125C249.658 202.152 249.792 177.595 249 174C249.542 175.218 250.167 176.399 250.869 177.535C252.723 180.365 259.99 184.365 263.473 199.391C266.187 214.889 257.834 225.851 251.694 230Z" fill="#EBEBEB"/>
<path d="M425.332 216.795H374.688C366.918 216.795 360.62 223.093 360.62 230.863V281.507C360.62 289.276 366.918 295.575 374.688 295.575H425.332C433.101 295.575 439.4 289.276 439.4 281.507V230.863C439.4 223.093 433.101 216.795 425.332 216.795Z" fill="white" fill-opacity="0.1"/>
<path d="M425.332 216.326H374.688C366.659 216.326 360.151 222.834 360.151 230.863V281.507C360.151 289.535 366.659 296.043 374.688 296.043H425.332C433.36 296.043 439.868 289.535 439.868 281.507V230.863C439.868 222.834 433.36 216.326 425.332 216.326Z" stroke="white" stroke-opacity="0.2" stroke-width="0.937853"/>
<mask id="mask2_306_9" style="mask-type:luminance" maskUnits="userSpaceOnUse" x="369" y="226" width="62" height="61">
<path d="M430.077 226.231L370.055 226.116L369.94 286.138L429.962 286.254L430.077 226.231Z" fill="white"/>
</mask>
<g mask="url(#mask2_306_9)">
<path d="M396 257C396.53 257 397.039 257.211 397.414 257.586C397.789 257.961 398 258.47 398 259V281H384C383.47 281 382.961 280.789 382.586 280.414C382.211 280.039 382 279.53 382 279V259C382 258.47 382.211 257.961 382.586 257.586C382.961 257.211 383.47 257 384 257H396ZM392 256V247C392 246.47 392.211 245.961 392.586 245.586C392.961 245.211 393.47 245 394 245H406C406.53 245 407.039 245.211 407.414 245.586C407.789 245.961 408 246.47 408 247V281H399V259C399 258.204 398.684 257.441 398.121 256.879C397.559 256.316 396.796 256 396 256H392ZM402 244V235C402 234.47 402.211 233.961 402.586 233.586C402.961 233.211 403.47 233 404 233H416C416.53 233 417.039 233.211 417.414 233.586C417.789 233.961 418 234.47 418 235V279C418 279.53 417.789 280.039 417.414 280.414C417.039 280.789 416.53 281 416 281H409V247C409 246.204 408.684 245.441 408.121 244.879C407.559 244.316 406.796 244 406 244H402Z" fill="white"/>
</g>
<path d="M322.855 303.864H260.217C256.019 303.864 252.615 307.268 252.615 311.466V374.104C252.615 378.303 256.019 381.706 260.217 381.706H322.855C327.054 381.706 330.457 378.303 330.457 374.104V311.466C330.457 307.268 327.054 303.864 322.855 303.864Z" fill="white" fill-opacity="0.1"/>
<path d="M322.855 303.395H260.217C255.76 303.395 252.146 307.009 252.146 311.466V374.104C252.146 378.562 255.76 382.175 260.217 382.175H322.855C327.313 382.175 330.926 378.562 330.926 374.104V311.466C330.926 307.009 327.313 303.395 322.855 303.395Z" stroke="white" stroke-opacity="0.2" stroke-width="0.937853"/>
<path d="M284.568 333.25C284.568 330.797 283.594 328.444 281.86 326.709C280.127 324.975 277.776 324 275.324 324H273.784C270.924 324 268.181 325.137 266.158 327.161C264.136 329.185 263 331.93 263 334.792V350.208C263 353.07 264.136 355.815 266.158 357.839C268.181 359.863 270.924 361 273.784 361H275.324C277.776 361 280.127 360.025 281.86 358.291C283.594 356.556 284.568 354.203 284.568 351.75M303.054 327.083L299.973 357.917M315.378 327.083L312.297 357.917M296.892 336.333H320M318.459 348.667H295.351" stroke="white" stroke-width="4" stroke-linecap="round" stroke-linejoin="round"/>
<path d="M347.339 440.791H296.695C288.925 440.791 282.627 447.089 282.627 454.859V505.503C282.627 513.272 288.925 519.571 296.695 519.571H347.339C355.108 519.571 361.407 513.272 361.407 505.503V454.859C361.407 447.089 355.108 440.791 347.339 440.791Z" fill="white" fill-opacity="0.1"/>
<path d="M347.339 440.322H296.695C288.666 440.322 282.158 446.83 282.158 454.859V505.503C282.158 513.531 288.666 520.039 296.695 520.039H347.339C355.367 520.039 361.875 513.531 361.875 505.503V454.859C361.875 446.83 355.367 440.322 347.339 440.322Z" stroke="white" stroke-opacity="0.2" stroke-width="0.937853"/>
<mask id="mask3_306_9" style="mask-type:luminance" maskUnits="userSpaceOnUse" x="294" y="452" width="56" height="56">
<path d="M349.367 452.982H294.818V507.531H349.367V452.982Z" fill="white"/>
</mask>
<g mask="url(#mask3_306_9)">
<path d="M321.736 454V458.843H317.381V460.119H321.736V464.962H323.273V460.119H327.623V458.843H323.273V454H322.504H321.736ZM335.052 458.973L335.048 462.541V466.11H328.518V468.148H335.048V475.157H337.351L337.375 471.679L337.419 468.214L340.655 468.17L343.879 468.148V466.11H337.358V458.973H336.205H335.052ZM307.653 459.105V466.118H301.059V468.152H307.653V475.165H309.829V468.15H316.482V466.116H309.829V459.105H308.742H307.653ZM321.093 470.691V478.591H313.799V481.203H321.095V489.109H323.922V481.203H331.23V478.591H323.92V470.691H322.513H321.093ZM342.56 474.099V478.982H338.117V480.765H342.56V485.736H344.519V480.765H349V478.982H344.519V474.101H343.587L342.56 474.099ZM300.357 474.387V479.167H296V480.532H300.357V485.356H301.83V480.532H306.247V479.169H301.762V474.385H301.059L300.357 474.387ZM335.048 484.316V491.47H328.387V493.508H335.048V500.581H337.415V493.51H344.009V491.47H337.415V484.316H336.238H335.048ZM307.525 484.333V491.47H300.995V493.51H307.525V500.521H309.957V493.51H316.482V491.47H309.957V484.331H308.742L307.525 484.333ZM321.473 494.398L321.478 496.823V499.242H317.125V501.027H321.478V506H323.527L323.553 503.54L323.591 501.027H327.939V499.242H323.522V494.398H322.496H321.473Z" fill="white"/>
</g>
<path d="M194.468 416.407H143.824C136.054 416.407 129.756 422.705 129.756 430.475V481.119C129.756 488.888 136.054 495.187 143.824 495.187H194.468C202.237 495.187 208.536 488.888 208.536 481.119V430.475C208.536 422.705 202.237 416.407 194.468 416.407Z" fill="white" fill-opacity="0.1"/>
<path d="M194.468 415.938H143.824C135.795 415.938 129.287 422.446 129.287 430.475V481.119C129.287 489.147 135.795 495.655 143.824 495.655H194.468C202.496 495.655 209.004 489.147 209.004 481.119V430.475C209.004 422.446 202.496 415.938 194.468 415.938Z" stroke="white" stroke-opacity="0.2" stroke-width="0.937853"/>
<path d="M188 440.437V470.516C188 471.566 187.697 472.506 187.091 473.337C186.486 474.151 185.67 474.699 184.645 474.981L171.294 478.859C171.108 478.906 170.898 478.953 170.665 479H170.152C169.64 479 169.174 478.929 168.754 478.788C168.335 478.647 167.908 478.46 167.473 478.225L158.736 473.243C158.409 473.055 158.153 472.812 157.967 472.514C157.78 472.216 157.687 471.879 157.687 471.503C157.687 470.939 157.889 470.462 158.293 470.07C158.681 469.678 159.155 469.483 159.714 469.483H171.038V441.729L162.51 444.784C161.842 445.035 161.298 445.473 160.879 446.1C160.46 446.695 160.25 447.361 160.25 448.097V463.913C160.25 464.571 160.087 465.166 159.761 465.699C159.45 466.232 159.007 466.655 158.433 466.968L154.425 469.177C154.052 469.381 153.679 469.483 153.307 469.483C152.67 469.483 152.126 469.255 151.676 468.801C151.225 468.347 151 467.791 151 467.132V444.854C151 444.04 151.21 443.28 151.629 442.575C152.064 441.792 152.631 441.196 153.33 440.789L167.683 432.564C168.009 432.376 168.358 432.235 168.731 432.141C169.104 432.047 169.477 432 169.849 432C170.114 432 170.354 432.023 170.572 432.07C170.789 432.102 171.03 432.157 171.294 432.235L184.645 435.971C185.157 436.112 185.616 436.324 186.02 436.606C186.423 436.888 186.773 437.225 187.068 437.616C187.379 438.024 187.612 438.462 187.767 438.932C187.922 439.418 188 439.92 188 440.437ZM184.924 470.516V440.437C184.924 440.076 184.831 439.763 184.645 439.497C184.412 439.199 184.124 439.019 183.783 438.956L177.212 437.123C176.731 436.982 176.218 436.841 175.674 436.7C175.162 436.528 174.657 436.379 174.16 436.253V474.793L183.783 471.95C184.124 471.887 184.412 471.723 184.645 471.457C184.831 471.19 184.924 470.877 184.924 470.516Z" fill="white"/>
<path d="M169.147 254.158H118.503C110.733 254.158 104.435 260.456 104.435 268.226V318.87C104.435 326.639 110.733 332.938 118.503 332.938H169.147C176.916 332.938 183.215 326.639 183.215 318.87V268.226C183.215 260.456 176.916 254.158 169.147 254.158Z" fill="white" fill-opacity="0.1"/>
<path d="M169.147 253.689H118.503C110.474 253.689 103.966 260.197 103.966 268.226V318.87C103.966 326.898 110.474 333.406 118.503 333.406H169.147C177.175 333.406 183.683 326.898 183.683 318.87V268.226C183.683 260.197 177.175 253.689 169.147 253.689Z" stroke="white" stroke-opacity="0.2" stroke-width="0.937853"/>
<path d="M139.978 265.66C139.978 265.66 139.978 264.71 141.056 265.09C141.688 265.313 149.875 270.417 154.966 273.481L154.98 273.488L155.841 274.003C155.851 274.01 155.858 274.025 155.867 274.029C156.629 274.504 157.419 275.027 158.247 275.628C158.561 275.821 158.818 276.094 158.993 276.419C159.167 276.745 159.253 277.111 159.24 277.48L159.099 295.45C159.117 295.633 159.084 295.819 159.004 295.985C158.924 296.151 158.799 296.291 158.644 296.39L155.806 298.326V277.91C155.706 277.829 155.609 277.744 155.496 277.677L143.526 270.529C141.766 269.422 139.978 266.629 139.978 265.66ZM133.141 294.566L143.526 300.775L153.906 294.68V292.118L144.091 297.87C143.913 297.957 143.721 298.015 143.524 298.041C143.322 298.042 143.124 297.982 142.956 297.87L133.141 292.004V294.566ZM133.141 299.181C133.141 299.585 133.345 299.958 133.681 300.179L142.984 305.874C143.275 306.016 143.368 306.04 143.524 306.026C143.732 306.019 143.933 305.85 144.12 305.76L153.424 300.065C153.594 299.962 153.735 299.816 153.83 299.64C153.925 299.465 153.971 299.267 153.963 299.067V297.188L144.091 303.166C143.923 303.279 143.726 303.339 143.524 303.339C143.322 303.339 143.124 303.279 142.956 303.166L133.141 297.3V299.176V299.181ZM153.906 289.356V288.13C153.909 287.935 153.861 287.743 153.766 287.573C153.671 287.403 153.534 287.261 153.367 287.161L144.063 281.466C143.9 281.368 143.714 281.316 143.524 281.316C143.334 281.316 143.147 281.368 142.984 281.466L133.683 287.161C133.52 287.265 133.386 287.408 133.291 287.577C133.197 287.746 133.146 287.936 133.144 288.13V289.356L143.528 295.564L153.906 289.356ZM143.325 316.27L131.554 309.235C131.457 309.175 131.412 309.068 131.327 308.997V288.501L128.488 290.182C128.33 290.283 128.198 290.421 128.105 290.585C128.011 290.748 127.959 290.932 127.951 291.12V309.805C127.964 310.146 128.058 310.48 128.225 310.777C128.393 311.075 128.629 311.328 128.914 311.515L131.923 313.391C131.918 313.391 131.916 313.384 131.911 313.381L146.161 321.908C146.244 321.966 146.343 321.998 146.444 322C146.545 322.002 146.645 321.973 146.73 321.919C146.815 321.864 146.882 321.784 146.922 321.691C146.963 321.598 146.974 321.495 146.956 321.395C146.741 320.333 146.307 319.328 145.682 318.446C145.056 317.563 144.254 316.821 143.325 316.27ZM136.146 274.73C136.455 274.551 136.807 274.458 137.164 274.462C137.522 274.466 137.872 274.566 138.178 274.751L153.932 284.142V280.782C153.922 280.598 153.865 280.42 153.765 280.265C153.666 280.111 153.527 279.985 153.364 279.9L138.272 270.928C137.973 270.736 137.626 270.632 137.271 270.627C136.916 270.622 136.566 270.716 136.261 270.899L132.872 272.932C128.266 275.682 118.721 281.371 118.33 281.565C118.23 281.623 118.147 281.705 118.089 281.806C118.031 281.906 118 282.02 118 282.135C118 282.251 118.031 282.365 118.089 282.465C118.147 282.565 118.23 282.648 118.33 282.705C119.312 282.995 120.343 283.078 121.358 282.951C122.374 282.823 123.352 282.488 124.233 281.964L136.146 274.73ZM168.658 304.164C167.67 303.862 166.63 303.77 165.604 303.892C164.578 304.015 163.589 304.35 162.699 304.876L150.786 311.968C150.468 312.156 150.106 312.255 149.737 312.255C149.368 312.255 149.006 312.156 148.688 311.968L148.645 311.954L133.141 302.77V306.071C133.191 306.431 133.361 306.764 133.624 307.014L148.659 315.956C148.974 316.153 149.338 316.257 149.708 316.257C150.079 316.257 150.443 316.153 150.758 315.956L154.105 313.906H154.095L168.658 305.247C168.76 305.199 168.847 305.122 168.907 305.026C168.968 304.93 169 304.819 169 304.705C169 304.592 168.968 304.481 168.907 304.385C168.847 304.289 168.76 304.212 168.658 304.164ZM141.056 279.558L138.218 277.877C138.065 277.781 137.888 277.73 137.708 277.73C137.528 277.73 137.351 277.781 137.198 277.877L123.838 285.795C123.509 285.971 123.236 286.234 123.045 286.555C122.855 286.876 122.756 287.243 122.759 287.617V308.665C122.761 308.763 122.791 308.858 122.846 308.939C122.9 309.021 122.977 309.085 123.066 309.124C123.156 309.163 123.255 309.175 123.351 309.159C123.448 309.144 123.538 309.101 123.61 309.035C124.387 308.305 125.006 307.423 125.43 306.444C125.855 305.464 126.075 304.408 126.078 303.34V289.099C126.092 288.795 126.171 288.498 126.31 288.227L141.056 279.558ZM146.048 307.413L148.886 309.035C149.044 309.133 149.225 309.185 149.41 309.185C149.596 309.185 149.777 309.133 149.934 309.035L163.38 300.917C164.173 300.426 164.426 299.948 164.426 299.24L164.431 299.238V295.079C164.431 295.094 164.421 295.103 164.421 295.12C164.407 289.196 164.39 278.896 164.431 278.247C164.487 277.335 163.551 277.649 163.551 277.649C162.797 278.393 162.199 279.28 161.79 280.258C161.381 281.236 161.17 282.286 161.168 283.347V297.585C161.097 297.943 160.943 298.28 160.717 298.566L146.048 307.413Z" fill="white"/>
<path d="M387.667 559.898H337.023C329.253 559.898 322.955 566.196 322.955 573.966V624.61C322.955 632.379 329.253 638.678 337.023 638.678H387.667C395.436 638.678 401.735 632.379 401.735 624.61V573.966C401.735 566.196 395.436 559.898 387.667 559.898Z" fill="white" fill-opacity="0.1"/>
<path d="M387.667 559.43H337.023C328.994 559.43 322.486 565.938 322.486 573.967V624.611C322.486 632.639 328.994 639.148 337.023 639.148H387.667C395.695 639.148 402.203 632.639 402.203 624.611V573.967C402.203 565.938 395.695 559.43 387.667 559.43Z" stroke="white" stroke-opacity="0.2" stroke-width="0.937853"/>
<path d="M336.09 568.339C335.523 568.339 335.1 568.801 335.151 569.366L339.933 623.014C339.984 623.579 340.472 624.166 341.019 624.318L361.315 629.953C361.862 630.105 362.756 630.105 363.303 629.953L383.661 624.309C384.208 624.157 384.697 623.571 384.747 623.006L389.538 569.366C389.589 568.801 389.165 568.339 388.598 568.339H336.09ZM379.352 580.643C379.307 581.147 379.229 582.022 379.178 582.587L379.052 583.994C379.002 584.559 378.929 585.367 378.891 585.79C378.853 586.212 378.817 586.558 378.811 586.558C378.804 586.558 378.335 586.558 377.767 586.558H363.376C362.808 586.558 362.339 586.558 362.333 586.558C362.327 586.558 361.858 586.558 361.29 586.558H353.711C353.144 586.558 352.721 587.02 352.771 587.585L353.213 592.527C353.264 593.092 353.769 593.554 354.337 593.554H361.291C361.858 593.554 362.327 593.554 362.333 593.554C362.34 593.554 362.809 593.554 363.376 593.554H375.329C375.896 593.554 376.774 593.554 377.28 593.554C377.785 593.554 378.161 593.967 378.116 594.471C378.07 594.975 377.991 595.85 377.941 596.415L376.519 612.347C376.468 612.912 376.404 613.634 376.376 613.951C376.348 614.268 375.878 614.652 375.331 614.803L363.338 618.129C362.792 618.28 362.337 618.406 362.329 618.407C362.32 618.409 361.866 618.287 361.319 618.135L349.314 614.804C348.767 614.652 348.279 614.065 348.228 613.5L347.455 604.826C347.405 604.261 347.828 603.799 348.396 603.799H349.491C350.059 603.799 350.987 603.799 351.554 603.799H353.188C353.755 603.799 354.261 604.261 354.311 604.826L354.614 608.222C354.665 608.787 355.154 609.37 355.702 609.518L361.318 611.035C361.865 611.183 362.315 611.304 362.318 611.304C362.32 611.304 362.77 611.182 363.318 611.034L368.944 609.514C369.491 609.366 369.981 608.783 370.032 608.218L370.642 601.415C370.692 600.85 370.27 600.388 369.702 600.388H363.376C362.809 600.388 362.34 600.388 362.333 600.388C362.327 600.388 361.858 600.388 361.291 600.388H348.09C347.522 600.388 347.017 599.925 346.967 599.36L345.47 582.587C345.419 582.022 345.341 581.147 345.296 580.643C345.251 580.139 345.679 579.726 346.246 579.726H361.291C361.858 579.726 362.327 579.726 362.333 579.726C362.34 579.726 362.809 579.726 363.376 579.726H378.402C378.97 579.726 379.397 580.139 379.352 580.643Z" fill="white"/>
</g>
</g>
<defs>
<radialGradient id="paint0_radial_306_9" cx="0" cy="0" r="1" gradientUnits="userSpaceOnUse" gradientTransform="translate(332 332.938) rotate(90) scale(349.759)">
<stop stop-color="white"/>
<stop offset="1" stop-color="white" stop-opacity="0"/>
</radialGradient>
<linearGradient id="paint1_linear_306_9" x1="77.7459" y1="-68.5932" x2="299.079" y2="712.638" gradientUnits="userSpaceOnUse">
<stop offset="0.416946"/>
<stop offset="0.880782" stop-opacity="0.02"/>
</linearGradient>
<clipPath id="clip0_306_9">
<rect width="664" height="665" fill="white"/>
</clipPath>
</defs>
</svg>
